<svg width="32" height="32" viewBox="0 0 32 32" fill="none" xmlns="http://www.w3.org/2000/svg">
<path fill-rule="evenodd" clip-rule="evenodd" d="M20.0007 1.66658L12.0007 1.66658C4.76065 1.66658 1.66732 4.75992 1.66732 11.9999L1.66732 19.9999C1.66732 27.2399 4.76065 30.3333 12.0007 30.3333L20.0007 30.3333C27.2407 30.3333 30.334 27.2399 30.334 19.9999L30.334 11.9999C30.334 4.75992 27.2407 1.66658 20.0007 1.66658ZM28.334 19.9999C28.334 26.1466 26.1473 28.3333 20.0007 28.3333L12.0007 28.3333C5.85398 28.3333 3.66732 26.1466 3.66732 19.9999L3.66732 11.9999C3.66732 5.85325 5.85398 3.66658 12.0007 3.66658L20.0007 3.66658C26.1473 3.66658 28.334 5.85325 28.334 11.9999L28.334 19.9999ZM16.7073 12.4132C16.5073 12.2132 16.254 12.1199 16.0007 12.1199C15.7473 12.1199 15.494 12.2132 15.294 12.4132L10.5873 17.1199C10.2007 17.5066 10.2007 18.1466 10.5873 18.5332C10.974 18.9199 11.614 18.9199 12.0007 18.5332L16.0007 14.5332L20.0007 18.5332C20.3873 18.9199 21.0273 18.9199 21.414 18.5332C21.8007 18.1466 21.8007 17.5066 21.414 17.1199L16.7073 12.4132Z" fill="#333333"/>
</svg>
