<svg width="32" height="32" viewBox="0 0 32 32" fill="none" xmlns="http://www.w3.org/2000/svg">
<path fill-rule="evenodd" clip-rule="evenodd" d="M11.9993 30.3334H19.9993C27.2393 30.3334 30.3327 27.2401 30.3327 20.0001V12.0001C30.3327 4.76008 27.2393 1.66675 19.9993 1.66675H11.9993C4.75935 1.66675 1.66602 4.76008 1.66602 12.0001V20.0001C1.66602 27.2401 4.75935 30.3334 11.9993 30.3334ZM3.66602 12.0001C3.66602 5.85341 5.85268 3.66675 11.9993 3.66675H19.9993C26.146 3.66675 28.3327 5.85341 28.3327 12.0001V20.0001C28.3327 26.1467 26.146 28.3334 19.9993 28.3334H11.9993C5.85268 28.3334 3.66602 26.1467 3.66602 20.0001V12.0001ZM15.2927 19.5868C15.4927 19.7868 15.746 19.8801 15.9993 19.8801C16.2527 19.8801 16.506 19.7868 16.706 19.5868L21.4127 14.8801C21.7993 14.4934 21.7993 13.8534 21.4127 13.4668C21.026 13.0801 20.386 13.0801 19.9993 13.4668L15.9993 17.4668L11.9993 13.4668C11.6127 13.0801 10.9727 13.0801 10.586 13.4668C10.1993 13.8534 10.1993 14.4934 10.586 14.8801L15.2927 19.5868Z" fill="#333333"/>
</svg>
