<svg width="200" height="200" viewBox="0 0 200 200" fill="none" xmlns="http://www.w3.org/2000/svg">
<rect width="200" height="200" rx="8" fill="#E0E0E0"/>
<path d="M111 89H89C88.4696 89 87.9609 89.2107 87.5858 89.5858C87.2107 89.9609 87 90.4696 87 91V109C87 109.53 87.2107 110.039 87.5858 110.414C87.9609 110.789 88.4696 111 89 111H111C111.53 111 112.039 110.789 112.414 110.414C112.789 110.039 113 109.53 113 109V91C113 90.4696 112.789 89.9609 112.414 89.5858C112.039 89.2107 111.53 89 111 89ZM111 91V103.844L107.741 100.586C107.556 100.4 107.335 100.253 107.092 100.153C106.85 100.052 106.59 100 106.327 100C106.064 100 105.804 100.052 105.561 100.153C105.319 100.253 105.098 100.4 104.913 100.586L102.413 103.086L96.9125 97.5863C96.5375 97.2115 96.029 97.0009 95.4987 97.0009C94.9685 97.0009 94.46 97.2115 94.085 97.5863L89 102.671V91H111ZM89 105.5L95.5 99L105.5 109H89V105.5ZM111 109H108.329L103.829 104.5L106.329 102L111 106.673V109ZM102 96.5C102 96.2033 102.088 95.9133 102.253 95.6666C102.418 95.42 102.652 95.2277 102.926 95.1142C103.2 95.0006 103.502 94.9709 103.793 95.0288C104.084 95.0867 104.351 95.2296 104.561 95.4393C104.77 95.6491 104.913 95.9164 104.971 96.2074C105.029 96.4983 104.999 96.7999 104.886 97.074C104.772 97.3481 104.58 97.5824 104.333 97.7472C104.087 97.912 103.797 98 103.5 98C103.102 98 102.721 97.842 102.439 97.5607C102.158 97.2794 102 96.8978 102 96.5Z" fill="#828282"/>
</svg>
